<svg width="377" height="377" viewBox="0 0 377 377" fill="none" xmlns="http://www.w3.org/2000/svg">
<rect width="377" height="377" rx="80" fill="#269E97"/>
<path d="M83.1181 146.729C102.201 174.93 119.588 178.538 129.13 180.698C143.972 184.059 169.417 172.809 184.047 161.996C191.764 156.292 205.463 144.103 213.308 139.351C228.711 130.022 252.548 129.906 269.286 139.351C280.312 145.574 291.55 156.527 293.034 158.435" stroke="white" stroke-width="20" stroke-linecap="round"/>
<path d="M83.3301 209.916C102.413 238.116 119.8 241.724 129.342 243.885C144.184 247.246 169.629 235.996 184.259 225.182C191.976 219.479 205.675 207.29 213.52 202.538C228.923 193.208 252.76 193.092 269.498 202.538C280.524 208.76 291.762 219.713 293.246 221.621" stroke="white" stroke-width="20" stroke-linecap="round"/>
</svg>
