<svg width="798" height="781" viewBox="0 0 798 781" fill="none" xmlns="http://www.w3.org/2000/svg">
<rect width="798" height="781" rx="200" fill="url(#paint0_linear_46_5293)"/>
<path d="M175.937 303.966C216.331 362.388 253.134 369.862 273.331 374.338C304.748 381.301 358.606 357.995 389.575 335.593C405.908 323.778 434.906 298.527 451.512 288.683C484.115 269.355 534.571 269.115 570 288.683C593.339 301.573 617.126 324.263 620.268 328.216" stroke="white" stroke-width="70" stroke-linecap="round"/>
<path d="M176.386 434.865C216.779 493.286 253.583 500.761 273.779 505.237C305.197 512.199 359.055 488.894 390.024 466.492C406.357 454.676 435.354 429.426 451.961 419.581C484.564 400.254 535.019 400.013 570.449 419.581C593.787 432.471 617.575 455.162 620.716 459.115" stroke="white" stroke-width="70" stroke-linecap="round"/>
<defs>
<linearGradient id="paint0_linear_46_5293" x1="674.31" y1="105.435" x2="164.423" y2="705.961" gradientUnits="userSpaceOnUse">
<stop stop-color="#269E97"/>
<stop offset="1" stop-color="#107F79"/>
</linearGradient>
</defs>
</svg>
