<svg width="515" height="302" viewBox="0 0 515 302" fill="none" xmlns="http://www.w3.org/2000/svg">
<path d="M35 64.8189C75.4137 123.141 112.235 130.603 132.442 135.072C163.875 142.022 217.76 118.756 248.744 96.3919C265.085 84.5968 294.097 59.3888 310.711 49.5612C343.331 30.2665 393.811 30.0264 429.258 49.5612C452.608 62.4294 476.408 85.0816 479.551 89.0276" stroke="url(#paint0_linear_46_5298)" stroke-width="70" stroke-linecap="round"/>
<path d="M35.449 195.496C75.8627 253.818 112.684 261.28 132.891 265.749C164.324 272.7 218.209 249.433 249.193 227.069C265.534 215.274 294.546 190.066 311.16 180.238C343.78 160.944 394.26 160.704 429.707 180.238C453.057 193.107 476.857 215.759 480 219.705" stroke="url(#paint1_linear_46_5298)" stroke-width="70" stroke-linecap="round"/>
<defs>
<linearGradient id="paint0_linear_46_5298" x1="410.646" y1="48.6786" x2="385.132" y2="177.709" gradientUnits="userSpaceOnUse">
<stop stop-color="#269E97"/>
<stop offset="1" stop-color="#107F79"/>
</linearGradient>
<linearGradient id="paint1_linear_46_5298" x1="411.095" y1="179.356" x2="385.581" y2="308.386" gradientUnits="userSpaceOnUse">
<stop stop-color="#269E97"/>
<stop offset="1" stop-color="#107F79"/>
</linearGradient>
</defs>
</svg>
