<svg width="722" height="458" viewBox="0 0 722 458" fill="none" xmlns="http://www.w3.org/2000/svg">
<g clip-path="url(#clip0_12307_5433)">
<g filter="url(#filter0_i_12307_5433)">
<rect width="722" height="458" rx="25" fill="url(#paint0_linear_12307_5433)" fill-opacity="0.8"/>
</g>
<path d="M227.096 363L221.504 345.48H225.032L229.664 360.648L228.656 360.168H231.248L230.216 360.648L234.488 345.48H237.896L232.712 363H227.096ZM243.092 363V345.48H246.5V363H243.092ZM261.168 363.456C259.584 363.456 258.224 363.176 257.088 362.616C255.952 362.056 255.024 361.328 254.304 360.432C253.6 359.536 253.08 358.56 252.744 357.504C252.408 356.448 252.24 355.432 252.24 354.456V353.928C252.24 352.84 252.408 351.768 252.744 350.712C253.096 349.656 253.632 348.696 254.352 347.832C255.072 346.968 255.984 346.28 257.088 345.768C258.208 345.24 259.528 344.976 261.049 344.976C262.632 344.976 264.008 345.264 265.176 345.84C266.36 346.4 267.305 347.2 268.009 348.24C268.713 349.264 269.136 350.464 269.28 351.84H265.848C265.72 351.04 265.432 350.368 264.984 349.824C264.552 349.264 264 348.848 263.328 348.576C262.656 348.288 261.896 348.144 261.049 348.144C260.184 348.144 259.416 348.296 258.744 348.6C258.072 348.888 257.512 349.304 257.064 349.848C256.616 350.392 256.272 351.032 256.032 351.768C255.808 352.504 255.696 353.32 255.696 354.216C255.696 355.08 255.808 355.88 256.032 356.616C256.272 357.352 256.624 358 257.088 358.56C257.552 359.104 258.12 359.528 258.792 359.832C259.48 360.136 260.272 360.288 261.168 360.288C262.481 360.288 263.585 359.968 264.481 359.328C265.392 358.672 265.944 357.76 266.137 356.592H269.569C269.409 357.84 268.985 358.984 268.296 360.024C267.609 361.064 266.665 361.896 265.465 362.52C264.264 363.144 262.832 363.456 261.168 363.456ZM278.16 363V348H281.568V363H278.16ZM273.096 348.48V345.48H286.632V348.48H273.096ZM299.469 363.456C297.885 363.456 296.509 363.176 295.341 362.616C294.189 362.056 293.229 361.328 292.461 360.432C291.709 359.52 291.141 358.544 290.757 357.504C290.389 356.448 290.205 355.432 290.205 354.456V353.928C290.205 352.856 290.397 351.792 290.781 350.736C291.165 349.664 291.741 348.696 292.509 347.832C293.293 346.968 294.261 346.28 295.413 345.768C296.565 345.24 297.917 344.976 299.469 344.976C301.005 344.976 302.349 345.24 303.501 345.768C304.653 346.28 305.613 346.968 306.381 347.832C307.165 348.696 307.749 349.664 308.133 350.736C308.517 351.792 308.709 352.856 308.709 353.928V354.456C308.709 355.432 308.517 356.448 308.133 357.504C307.765 358.544 307.197 359.52 306.429 360.432C305.677 361.328 304.717 362.056 303.549 362.616C302.397 363.176 301.037 363.456 299.469 363.456ZM299.469 360.288C300.365 360.288 301.165 360.128 301.869 359.808C302.589 359.488 303.197 359.048 303.693 358.488C304.205 357.912 304.589 357.264 304.845 356.544C305.117 355.808 305.253 355.032 305.253 354.216C305.253 353.336 305.117 352.528 304.845 351.792C304.589 351.056 304.205 350.416 303.693 349.872C303.197 349.328 302.589 348.904 301.869 348.6C301.149 348.296 300.349 348.144 299.469 348.144C298.573 348.144 297.765 348.296 297.045 348.6C296.325 348.904 295.709 349.328 295.197 349.872C294.701 350.416 294.317 351.056 294.045 351.792C293.789 352.528 293.661 353.336 293.661 354.216C293.661 355.032 293.789 355.808 294.045 356.544C294.317 357.264 294.701 357.912 295.197 358.488C295.709 359.048 296.325 359.488 297.045 359.808C297.765 360.128 298.573 360.288 299.469 360.288ZM314.402 363V345.36H317.81V363H314.402ZM325.106 363L319.73 355.368H323.546L329.09 363H325.106ZM316.802 357.144V354.384H321.266C321.89 354.384 322.426 354.256 322.874 354C323.338 353.744 323.698 353.384 323.954 352.92C324.21 352.456 324.338 351.928 324.338 351.336C324.338 350.728 324.21 350.192 323.954 349.728C323.698 349.264 323.338 348.904 322.874 348.648C322.426 348.392 321.89 348.264 321.266 348.264H316.802V345.36H320.906C322.314 345.36 323.53 345.568 324.554 345.984C325.594 346.4 326.394 347.032 326.954 347.88C327.514 348.728 327.794 349.792 327.794 351.072V351.456C327.794 352.752 327.506 353.816 326.93 354.648C326.37 355.48 325.578 356.104 324.554 356.52C323.53 356.936 322.314 357.144 320.906 357.144H316.802ZM344.511 363.12V360.384H348.903C349.703 360.384 350.311 360.168 350.727 359.736C351.143 359.288 351.351 358.68 351.351 357.912C351.351 357.144 351.143 356.552 350.727 356.136C350.311 355.704 349.703 355.488 348.903 355.488H344.511V353.4H348.663C349.831 353.4 350.871 353.544 351.783 353.832C352.711 354.104 353.431 354.568 353.943 355.224C354.471 355.88 354.735 356.76 354.735 357.864V358.2C354.735 359.24 354.503 360.128 354.039 360.864C353.591 361.584 352.911 362.144 351.999 362.544C351.103 362.928 349.991 363.12 348.663 363.12H344.511ZM341.655 363.12V345.36H344.991V363.12H341.655ZM344.511 354.936V352.848H348.255C349.071 352.848 349.671 352.632 350.055 352.2C350.439 351.768 350.631 351.192 350.631 350.472C350.631 349.752 350.439 349.176 350.055 348.744C349.671 348.312 349.071 348.096 348.255 348.096H344.511V345.36H347.943C349.927 345.36 351.431 345.776 352.455 346.608C353.495 347.44 354.015 348.632 354.015 350.184V350.52C354.015 351.608 353.751 352.48 353.223 353.136C352.711 353.776 351.999 354.24 351.087 354.528C350.175 354.8 349.127 354.936 347.943 354.936H344.511ZM360.579 363V345.36H363.987V363H360.579ZM371.283 363L365.907 355.368H369.723L375.267 363H371.283ZM362.979 357.144V354.384H367.443C368.067 354.384 368.603 354.256 369.051 354C369.515 353.744 369.875 353.384 370.131 352.92C370.387 352.456 370.515 351.928 370.515 351.336C370.515 350.728 370.387 350.192 370.131 349.728C369.875 349.264 369.515 348.904 369.051 348.648C368.603 348.392 368.067 348.264 367.443 348.264H362.979V345.36H367.083C368.491 345.36 369.707 345.568 370.731 345.984C371.771 346.4 372.571 347.032 373.131 347.88C373.691 348.728 373.971 349.792 373.971 351.072V351.456C373.971 352.752 373.683 353.816 373.107 354.648C372.547 355.48 371.755 356.104 370.731 356.52C369.707 356.936 368.491 357.144 367.083 357.144H362.979ZM378.524 363L384.5 345.48H390.068L396.212 363H392.708L387.5 347.808L388.724 348.336H385.724L386.972 347.808L381.932 363H378.524ZM382.7 358.344L383.78 355.464H390.884L391.94 358.344H382.7ZM407.074 363.456C405.522 363.456 404.21 363.208 403.138 362.712C402.082 362.216 401.274 361.536 400.714 360.672C400.154 359.792 399.874 358.8 399.874 357.696H403.21C403.21 358.16 403.338 358.616 403.594 359.064C403.85 359.496 404.258 359.848 404.818 360.12C405.394 360.392 406.146 360.528 407.074 360.528C407.906 360.528 408.602 360.408 409.162 360.168C409.722 359.928 410.138 359.616 410.41 359.232C410.682 358.832 410.818 358.384 410.818 357.888C410.818 357.264 410.554 356.768 410.026 356.4C409.498 356.016 408.682 355.776 407.578 355.68L406.042 355.56C404.362 355.416 403.018 354.896 402.01 354C401.018 353.088 400.521 351.888 400.521 350.4C400.521 349.28 400.786 348.32 401.314 347.52C401.842 346.704 402.578 346.08 403.522 345.648C404.482 345.2 405.602 344.976 406.882 344.976C408.21 344.976 409.354 345.208 410.314 345.672C411.274 346.136 412.018 346.792 412.546 347.64C413.074 348.472 413.338 349.456 413.338 350.592H410.002C410.002 350.112 409.882 349.672 409.642 349.272C409.418 348.856 409.074 348.528 408.61 348.288C408.162 348.032 407.586 347.904 406.882 347.904C406.21 347.904 405.65 348.016 405.202 348.24C404.754 348.464 404.418 348.768 404.194 349.152C403.97 349.536 403.858 349.952 403.858 350.4C403.858 350.944 404.058 351.424 404.458 351.84C404.858 352.24 405.49 352.472 406.354 352.536L407.89 352.68C409.138 352.776 410.234 353.04 411.178 353.472C412.122 353.904 412.85 354.488 413.362 355.224C413.89 355.96 414.154 356.848 414.154 357.888C414.154 358.992 413.866 359.968 413.29 360.816C412.714 361.648 411.89 362.296 410.818 362.76C409.762 363.224 408.514 363.456 407.074 363.456ZM419.717 363V345.48H423.125V363H419.717ZM429.898 363V345.48H433.306V363H429.898ZM432.826 363V360H440.386V363H432.826ZM445.563 363V345.48H448.899V363H445.563ZM448.419 363V360.12H456.363V363H448.419ZM448.419 355.536V352.656H455.739V355.536H448.419ZM448.419 348.36V345.48H456.171V348.36H448.419ZM462.26 363V345.36H465.668V363H462.26ZM472.964 363L467.588 355.368H471.404L476.948 363H472.964ZM464.66 357.144V354.384H469.124C469.748 354.384 470.284 354.256 470.732 354C471.196 353.744 471.556 353.384 471.812 352.92C472.068 352.456 472.196 351.928 472.196 351.336C472.196 350.728 472.068 350.192 471.812 349.728C471.556 349.264 471.196 348.904 470.732 348.648C470.284 348.392 469.748 348.264 469.124 348.264H464.66V345.36H468.764C470.172 345.36 471.388 345.568 472.412 345.984C473.452 346.4 474.252 347.032 474.812 347.88C475.372 348.728 475.652 349.792 475.652 351.072V351.456C475.652 352.752 475.364 353.816 474.788 354.648C474.228 355.48 473.436 356.104 472.412 356.52C471.388 356.936 470.172 357.144 468.764 357.144H464.66ZM481.981 363V345.48H485.389V363H481.981ZM500.394 363.456C498.81 363.456 497.434 363.176 496.266 362.616C495.114 362.056 494.154 361.328 493.386 360.432C492.634 359.52 492.066 358.544 491.682 357.504C491.314 356.448 491.13 355.432 491.13 354.456V353.928C491.13 352.856 491.322 351.792 491.706 350.736C492.09 349.664 492.666 348.696 493.434 347.832C494.218 346.968 495.186 346.28 496.338 345.768C497.49 345.24 498.842 344.976 500.394 344.976C501.93 344.976 503.274 345.24 504.426 345.768C505.578 346.28 506.538 346.968 507.306 347.832C508.09 348.696 508.674 349.664 509.058 350.736C509.442 351.792 509.634 352.856 509.634 353.928V354.456C509.634 355.432 509.442 356.448 509.058 357.504C508.69 358.544 508.122 359.52 507.354 360.432C506.602 361.328 505.642 362.056 504.474 362.616C503.322 363.176 501.962 363.456 500.394 363.456ZM500.394 360.288C501.29 360.288 502.09 360.128 502.794 359.808C503.514 359.488 504.122 359.048 504.618 358.488C505.13 357.912 505.514 357.264 505.77 356.544C506.042 355.808 506.178 355.032 506.178 354.216C506.178 353.336 506.042 352.528 505.77 351.792C505.514 351.056 505.13 350.416 504.618 349.872C504.122 349.328 503.514 348.904 502.794 348.6C502.074 348.296 501.274 348.144 500.394 348.144C499.498 348.144 498.69 348.296 497.97 348.6C497.25 348.904 496.634 349.328 496.122 349.872C495.626 350.416 495.242 351.056 494.97 351.792C494.714 352.528 494.586 353.336 494.586 354.216C494.586 355.032 494.714 355.808 494.97 356.544C495.242 357.264 495.626 357.912 496.122 358.488C496.634 359.048 497.25 359.488 497.97 359.808C498.69 360.128 499.498 360.288 500.394 360.288Z" fill="#F4FAFB"/>
<circle cx="581.889" cy="86.4971" r="45.7505" fill="#E71924"/>
<circle cx="637.647" cy="86.4971" r="45.7505" fill="#F99F19"/>
<path fill-rule="evenodd" clip-rule="evenodd" d="M609.768 122.595C620.636 114.23 627.64 101.092 627.64 86.3172C627.64 71.5427 620.636 58.404 609.768 50.0396C598.9 58.404 591.897 71.5427 591.897 86.3172C591.897 101.092 598.9 114.23 609.768 122.595Z" fill="#F26520"/>
<rect x="80.4209" y="156.195" width="97.9347" height="69.3406" rx="6.07624" fill="url(#paint1_linear_12307_5433)" stroke="#211F21" stroke-width="2.14455"/>
<path d="M80.7783 178.713H110.087" stroke="#211F21" stroke-width="2" stroke-linecap="round"/>
<path d="M80.7783 200.873H109.445" stroke="#211F21" stroke-width="2" stroke-linecap="round"/>
<path d="M149.404 200.873H177.998" stroke="#211F21" stroke-width="2" stroke-linecap="round"/>
<path d="M148.975 179.428H177.998" stroke="#211F21" stroke-width="2" stroke-linecap="round"/>
<circle cx="129.388" cy="166.561" r="2.14455" fill="#211F21"/>
<path d="M231.053 205.824C236.325 192.59 236.926 185.119 231.053 171.645C230.43 170.215 231.053 169.024 231.768 168.786C232.483 168.547 233.589 168.786 234.27 170.215C241.188 184.73 240.767 192.87 234.627 207.387C233.912 208.817 232.575 208.998 231.768 208.46C230.824 207.831 230.608 206.941 231.053 205.824Z" fill="#F4FAFB"/>
<path d="M223.547 172.717C222.832 173.075 222.375 174.43 223.19 175.934C227.999 185.94 227.801 191.662 223.19 202.026C222.686 203.071 222.998 204.226 223.905 204.528C224.977 204.886 225.913 204.125 226.406 203.098C231.701 192.084 231.84 185.756 226.406 174.147C225.905 173.075 224.619 172.181 223.547 172.717Z" fill="#F4FAFB"/>
<path d="M216.399 177.364C215.326 177.721 215.136 178.908 215.684 180.223C218.53 187.063 218.979 190.898 215.684 197.737C215.041 198.929 214.83 200.193 216.041 200.596C217.252 201 218.126 200.363 218.543 199.524C222.766 191.149 221.82 186.454 218.543 178.079C218.263 177.364 217.471 177.006 216.399 177.364Z" fill="#F4FAFB"/>
<path d="M208.893 180.223C207.82 180.938 207.668 182.022 208.535 183.797C210.344 187.564 210.303 189.68 208.535 193.448C207.713 195.11 207.463 197.022 208.893 197.38C210.322 197.737 210.957 197.229 211.752 195.235C213.578 189.987 213.756 187.02 211.752 181.653C211.291 180.261 210.322 179.508 208.893 180.223Z" fill="#F4FAFB"/>
<path d="M145.115 170.849C142.372 161.508 137.251 156.91 129.03 156.91C119.023 156.91 116.194 164.53 110.087 178.355C113.998 187.507 114.039 192.437 110.087 200.873C116.494 219.254 121.24 224.915 129.388 224.821C140.111 224.821 143.163 215.733 149.046 200.873C145.952 192.497 145.622 187.875 148.5 179.5" stroke="#211F21" stroke-width="2" stroke-linecap="round"/>
</g>
<path d="M89 331.326C96.6287 345.655 103.579 347.489 107.394 348.587C113.327 350.294 123.498 344.578 129.347 339.083C132.432 336.185 137.908 329.992 141.044 327.578C147.202 322.837 156.731 322.778 163.422 327.578C167.829 330.739 172.322 336.305 172.915 337.274" stroke="white" stroke-width="10" stroke-linecap="round"/>
<path d="M89 359.326C96.6287 373.655 103.579 375.489 107.394 376.587C113.327 378.294 123.498 372.578 129.347 367.083C132.432 364.185 137.908 357.992 141.044 355.578C147.202 350.837 156.731 350.778 163.422 355.578C167.829 358.739 172.322 364.305 172.915 365.274" stroke="white" stroke-width="10" stroke-linecap="round"/>
<defs>
<filter id="filter0_i_12307_5433" x="0" y="0" width="725" height="461" filterUnits="userSpaceOnUse" color-interpolation-filters="sRGB">
<feFlood flood-opacity="0" result="BackgroundImageFix"/>
<feBlend mode="normal" in="SourceGraphic" in2="BackgroundImageFix" result="shape"/>
<feColorMatrix in="SourceAlpha" type="matrix" values="0 0 0 0 0 0 0 0 0 0 0 0 0 0 0 0 0 0 127 0" result="hardAlpha"/>
<feOffset dx="3" dy="3"/>
<feGaussianBlur stdDeviation="3"/>
<feComposite in2="hardAlpha" operator="arithmetic" k2="-1" k3="1"/>
<feColorMatrix type="matrix" values="0 0 0 0 1 0 0 0 0 1 0 0 0 0 1 0 0 0 0.25 0"/>
<feBlend mode="normal" in2="shape" result="effect1_innerShadow_12307_5433"/>
</filter>
<linearGradient id="paint0_linear_12307_5433" x1="610.09" y1="61.83" x2="354.096" y2="526.995" gradientUnits="userSpaceOnUse">
<stop stop-color="#50C4B6"/>
<stop offset="1" stop-color="#269E88"/>
</linearGradient>
<linearGradient id="paint1_linear_12307_5433" x1="171" y1="165" x2="87" y2="221" gradientUnits="userSpaceOnUse">
<stop stop-color="#F4F4F4"/>
<stop offset="1" stop-color="#D6D6D6"/>
</linearGradient>
<clipPath id="clip0_12307_5433">
<rect width="722" height="458" fill="white"/>
</clipPath>
</defs>
</svg>
