<svg width="94" height="63" viewBox="0 0 94 63" fill="none" xmlns="http://www.w3.org/2000/svg">
<path d="M5 12.3262C12.6287 26.6554 19.5792 28.4887 23.3935 29.5865C29.3269 31.2943 39.4985 25.578 45.3471 20.0834C48.4318 17.1854 53.9082 10.9921 57.0444 8.57753C63.2017 3.83704 72.7307 3.77804 79.4218 8.57753C83.8295 11.7391 88.3219 17.3045 88.9152 18.274" stroke="white" stroke-width="10" stroke-linecap="round"/>
<path d="M5 40.3262C12.6287 54.6554 19.5792 56.4887 23.3935 57.5865C29.3269 59.2943 39.4985 53.578 45.3471 48.0834C48.4318 45.1854 53.9082 38.9921 57.0444 36.5775C63.2017 31.837 72.7307 31.778 79.4218 36.5775C83.8295 39.7391 88.3219 45.3045 88.9152 46.274" stroke="white" stroke-width="10" stroke-linecap="round"/>
</svg>
